<svg preserveAspectRatio="none" width="100%" height="100%" overflow="visible" style="display: block;" viewBox="0 0 14.5879 14.5748" fill="none" xmlns="http://www.w3.org/2000/svg">
<path id="Vector" d="M5.96057 7.95404C6.24687 8.33679 6.61214 8.65349 7.03161 8.88267C7.45107 9.11184 7.91491 9.24812 8.39167 9.28226C8.86844 9.31641 9.34696 9.24762 9.7948 9.08056C10.2426 8.9135 10.6493 8.65209 10.9872 8.31404L12.9872 6.31404C13.5944 5.68537 13.9304 4.84336 13.9228 3.96937C13.9152 3.09538 13.5647 2.25934 12.9466 1.64131C12.3286 1.02328 11.4926 0.672721 10.6186 0.665126C9.74459 0.657531 8.90258 0.993513 8.27391 1.60071L7.12724 2.74071M8.62737 6.62072C8.34107 6.23796 7.9758 5.92126 7.55634 5.69209C7.13688 5.46292 6.67303 5.32664 6.19627 5.29249C5.71951 5.25835 5.24098 5.32714 4.79314 5.4942C4.3453 5.66125 3.93863 5.92267 3.60071 6.26072L1.60071 8.26072C0.993513 8.88939 0.657531 9.7314 0.665126 10.6054C0.672721 11.4794 1.02328 12.3154 1.64131 12.9334C2.25934 13.5515 3.09538 13.902 3.96937 13.9096C4.84336 13.9172 5.68537 13.5812 6.31404 12.974L7.45404 11.834" stroke="var(--stroke-0, #0A0A0A)" stroke-width="1.33" stroke-linecap="round" stroke-linejoin="round"/>
</svg>
