<svg preserveAspectRatio="none" width="100%" height="100%" overflow="visible" style="display: block;" viewBox="0 0 14.3337 14.3337" fill="none" xmlns="http://www.w3.org/2000/svg">
<path id="Vector" d="M12.499 1.16683V3.8335M13.8324 2.50016H11.1657M1.83236 10.5002V11.8335M2.49902 11.1668H1.16569M5.79032 9.50017C5.7308 9.26945 5.61054 9.0589 5.44206 8.89042C5.27358 8.72194 5.06303 8.60168 4.83232 8.54217L0.742317 7.4875C0.672537 7.46769 0.611123 7.42567 0.567392 7.3678C0.523661 7.30993 0.5 7.23937 0.5 7.16683C0.5 7.0943 0.523661 7.02374 0.567392 6.96587C0.611123 6.908 0.672537 6.86597 0.742317 6.84617L4.83232 5.79083C5.06295 5.73137 5.27344 5.61122 5.44192 5.44286C5.61039 5.2745 5.73069 5.06409 5.79032 4.8335L6.84498 0.7435C6.86459 0.673445 6.90657 0.611727 6.96453 0.567762C7.02249 0.523798 7.09324 0.5 7.16598 0.5C7.23873 0.5 7.30948 0.523798 7.36744 0.567762C7.42539 0.611727 7.46738 0.673445 7.48698 0.7435L8.54098 4.8335C8.6005 5.06421 8.72076 5.27476 8.88924 5.44324C9.05772 5.61173 9.26827 5.73198 9.49898 5.7915L13.589 6.8455C13.6593 6.8649 13.7213 6.90684 13.7655 6.96488C13.8097 7.02293 13.8337 7.09387 13.8337 7.16683C13.8337 7.23979 13.8097 7.31074 13.7655 7.36878C13.7213 7.42683 13.6593 7.46877 13.589 7.48817L9.49898 8.54217C9.26827 8.60168 9.05772 8.72194 8.88924 8.89042C8.72076 9.0589 8.6005 9.26945 8.54098 9.50017L7.48632 13.5902C7.46671 13.6602 7.42473 13.7219 7.36677 13.7659C7.30881 13.8099 7.23806 13.8337 7.16532 13.8337C7.09257 13.8337 7.02182 13.8099 6.96386 13.7659C6.90591 13.7219 6.86392 13.6602 6.84432 13.5902L5.79032 9.50017Z" stroke="var(--stroke-0, white)" stroke-linecap="round" stroke-linejoin="round"/>
</svg>
