<svg preserveAspectRatio="none" width="100%" height="100%" overflow="visible" style="display: block;" viewBox="0 0 13 13" fill="none" xmlns="http://www.w3.org/2000/svg">
<path id="Vector" d="M3.16667 12.5C3.87391 12.5 4.55219 12.219 5.05229 11.719C5.55238 11.2189 5.83333 10.5406 5.83333 9.83333V1.83333C5.83333 1.47971 5.69286 1.14057 5.44281 0.890524C5.19276 0.640476 4.85362 0.5 4.5 0.5H1.83333C1.47971 0.5 1.14057 0.640476 0.890524 0.890524C0.640476 1.14057 0.5 1.47971 0.5 1.83333V9.83333C0.5 10.5406 0.780951 11.2189 1.28105 11.719C1.78115 12.219 2.45942 12.5 3.16667 12.5ZM3.16667 12.5H11.1667C11.5203 12.5 11.8594 12.3595 12.1095 12.1095C12.3595 11.8594 12.5 11.5203 12.5 11.1667V8.5C12.5 8.14638 12.3595 7.80724 12.1095 7.55719C11.8594 7.30714 11.5203 7.16667 11.1667 7.16667H9.63333M3.16667 9.83333H3.17333M5.83327 3.83336L7.3666 2.30003C7.51547 2.15064 7.69241 2.03216 7.88723 1.95139C8.08205 1.87063 8.29092 1.82918 8.50182 1.82943C8.71272 1.82968 8.92149 1.87162 9.11613 1.95284C9.31076 2.03406 9.48742 2.15296 9.63594 2.3027L10.8999 3.5667C11.0537 3.71457 11.1763 3.89169 11.2606 4.08764C11.3448 4.28359 11.3891 4.49441 11.3907 4.70771C11.3923 4.92101 11.3513 5.13248 11.27 5.32969C11.1887 5.52689 11.0687 5.70585 10.9173 5.85603L5.09994 11.7" stroke="var(--stroke-0, white)" stroke-linecap="round" stroke-linejoin="round"/>
</svg>
