<svg preserveAspectRatio="none" width="100%" height="100%" overflow="visible" style="display: block;" viewBox="0 0 14.3333 12.3333" fill="none" xmlns="http://www.w3.org/2000/svg">
<path id="Vector" d="M12.5 11.8333C12.8536 11.8333 13.1928 11.6929 13.4428 11.4428C13.6929 11.1928 13.8333 10.8536 13.8333 10.5V3.83333C13.8333 3.47971 13.6929 3.14057 13.4428 2.89052C13.1928 2.64048 12.8536 2.5 12.5 2.5H7.23333C7.01034 2.50219 6.79036 2.44841 6.59353 2.34359C6.3967 2.23877 6.22931 2.08625 6.10667 1.9L5.56667 1.1C5.44526 0.915647 5.27998 0.764319 5.08567 0.659598C4.89135 0.554876 4.67407 0.500036 4.45333 0.5H1.83333C1.47971 0.5 1.14057 0.640476 0.890524 0.890524C0.640476 1.14057 0.5 1.47971 0.5 1.83333V10.5C0.5 10.8536 0.640476 11.1928 0.890524 11.4428C1.14057 11.6929 1.47971 11.8333 1.83333 11.8333H12.5Z" stroke="var(--stroke-0, white)" stroke-linecap="round" stroke-linejoin="round"/>
</svg>
