<svg preserveAspectRatio="none" width="100%" height="100%" overflow="visible" style="display: block;" viewBox="0 0 14.3334 13" fill="none" xmlns="http://www.w3.org/2000/svg">
<path id="Vector" d="M11.1667 12.5C11.1667 11.0855 10.6048 9.72896 9.60457 8.72876C8.60438 7.72857 7.24782 7.16667 5.83333 7.16667M5.83333 7.16667C4.41885 7.16667 3.06229 7.72857 2.0621 8.72876C1.0619 9.72896 0.5 11.0855 0.5 12.5M5.83333 7.16667C7.67428 7.16667 9.16667 5.67428 9.16667 3.83333C9.16667 1.99238 7.67428 0.5 5.83333 0.5C3.99238 0.5 2.5 1.99238 2.5 3.83333C2.5 5.67428 3.99238 7.16667 5.83333 7.16667ZM13.8334 11.8333C13.8334 9.58663 12.5 7.49997 11.1667 6.49997C11.605 6.17115 11.9554 5.73936 12.1871 5.24281C12.4187 4.74627 12.5244 4.20028 12.4947 3.65317C12.465 3.10606 12.301 2.57469 12.017 2.1061C11.7331 1.63751 11.338 1.24614 10.8667 0.966634" stroke="var(--stroke-0, white)" stroke-linecap="round" stroke-linejoin="round"/>
</svg>
