<svg preserveAspectRatio="none" width="100%" height="100%" overflow="visible" style="display: block;" viewBox="0 0 11.9967 14.6633" fill="none" xmlns="http://www.w3.org/2000/svg">
<path id="Vector" d="M7.33167 0.665V3.33167C7.33167 3.68529 7.47214 4.02443 7.72219 4.27448C7.97224 4.52452 8.31138 4.665 8.665 4.665H11.3317M7.99833 0.665H1.99833C1.64471 0.665 1.30557 0.805476 1.05552 1.05552C0.805476 1.30557 0.665 1.64471 0.665 1.99833V12.665C0.665 13.0186 0.805476 13.3578 1.05552 13.6078C1.30557 13.8579 1.64471 13.9983 1.99833 13.9983H9.99833C10.352 13.9983 10.6911 13.8579 10.9411 13.6078C11.1912 13.3578 11.3317 13.0186 11.3317 12.665V3.99833L7.99833 0.665Z" stroke="var(--stroke-0, #0A0A0A)" stroke-width="1.33" stroke-linecap="round" stroke-linejoin="round"/>
</svg>
