<svg preserveAspectRatio="none" width="100%" height="100%" overflow="visible" style="display: block;" viewBox="0 0 14.6788 14.0147" fill="none" xmlns="http://www.w3.org/2000/svg">
<path id="Vector" d="M5.36911 6.61634L10.7491 1.24301C10.9245 1.06197 11.1341 0.917641 11.3658 0.818417C11.5975 0.719193 11.8466 0.667062 12.0987 0.66506C12.3507 0.663058 12.6007 0.711225 12.8339 0.806755C13.0671 0.902285 13.2791 1.04327 13.4573 1.2215C13.6355 1.39972 13.7765 1.61163 13.872 1.84488C13.9676 2.07813 14.0157 2.32805 14.0137 2.58009C14.0117 2.83214 13.9596 3.08126 13.8604 3.31296C13.7611 3.54466 13.6168 3.7543 13.4358 3.92968L8.06244 9.31634M4.04242 8.64303C2.93575 8.64303 2.04242 9.54303 2.04242 10.6564C2.04242 11.543 0.375749 11.6697 0.709083 12.003C1.42908 12.7364 2.36908 13.3497 3.37575 13.3497C4.84242 13.3497 6.04242 12.1497 6.04242 10.6564C6.04329 10.3928 5.99226 10.1317 5.89222 9.88793C5.79219 9.64414 5.64511 9.42243 5.45939 9.23548C5.27368 9.04852 5.05295 8.89998 4.80983 8.79832C4.5667 8.69667 4.30594 8.6439 4.04242 8.64303Z" stroke="var(--stroke-0, #0A0A0A)" stroke-width="1.33" stroke-linecap="round" stroke-linejoin="round"/>
</svg>
