<svg preserveAspectRatio="none" width="100%" height="100%" overflow="visible" style="display: block;" viewBox="0 0 14.6633 14.6633" fill="none" xmlns="http://www.w3.org/2000/svg">
<path id="Vector" d="M3.33167 11.3317H1.99833C1.64471 11.3317 1.30557 11.1912 1.05552 10.9411C0.805476 10.6911 0.665 10.352 0.665 9.99833V6.665C0.665 6.31138 0.805476 5.97224 1.05552 5.72219C1.30557 5.47214 1.64471 5.33167 1.99833 5.33167H12.665C13.0186 5.33167 13.3578 5.47214 13.6078 5.72219C13.8579 5.97224 13.9983 6.31138 13.9983 6.665V9.99833C13.9983 10.352 13.8579 10.6911 13.6078 10.9411C13.3578 11.1912 13.0186 11.3317 12.665 11.3317H11.3317M3.33167 5.33167V1.33167C3.33167 1.15486 3.4019 0.985286 3.52693 0.860262C3.65195 0.735238 3.82152 0.665 3.99833 0.665H10.665C10.8418 0.665 11.0114 0.735238 11.1364 0.860262C11.2614 0.985286 11.3317 1.15486 11.3317 1.33167V5.33167M3.99833 8.665H10.665C11.0332 8.665 11.3317 8.96348 11.3317 9.33167V13.3317C11.3317 13.6999 11.0332 13.9983 10.665 13.9983H3.99833C3.63014 13.9983 3.33167 13.6999 3.33167 13.3317V9.33167C3.33167 8.96348 3.63014 8.665 3.99833 8.665Z" stroke="var(--stroke-0, #0A0A0A)" stroke-width="1.33" stroke-linecap="round" stroke-linejoin="round"/>
</svg>
