<svg preserveAspectRatio="none" width="100%" height="100%" overflow="visible" style="display: block;" viewBox="0 0 13.33 14.662" fill="none" xmlns="http://www.w3.org/2000/svg">
<path id="Vector" d="M0.865033 3.99703L6.66503 7.33036M6.66503 7.33036L12.465 3.99703M6.66503 7.33036L6.665 13.997M12.665 4.66363C12.6648 4.42982 12.603 4.20017 12.486 3.99774C12.369 3.79531 12.2008 3.62721 11.9983 3.5103L7.33167 0.843633C7.12897 0.726608 6.89905 0.665 6.665 0.665C6.43095 0.665 6.20103 0.726608 5.99833 0.843633L1.33167 3.5103C1.12918 3.62721 0.960987 3.79531 0.843975 3.99774C0.726962 4.20017 0.66524 4.42982 0.665 4.66363V9.99697C0.66524 10.2308 0.726962 10.4604 0.843975 10.6629C0.960987 10.8653 1.12918 11.0334 1.33167 11.1503L5.99833 13.817C6.20103 13.934 6.43095 13.9956 6.665 13.9956C6.89905 13.9956 7.12897 13.934 7.33167 13.817L11.9983 11.1503C12.2008 11.0334 12.369 10.8653 12.486 10.6629C12.603 10.4604 12.6648 10.2308 12.665 9.99697V4.66363Z" stroke="var(--stroke-0, #0A0A0A)" stroke-width="1.33" stroke-linecap="round" stroke-linejoin="round"/>
</svg>
